<?xml version="1.0" encoding="UTF-8" ?>
<!DOCTYPE svg PUBLIC "-//W3C//DTD SVG 1.1//EN" "http://www.w3.org/Graphics/SVG/1.1/DTD/svg11.dtd">
<svg width="722pt" height="639pt" viewBox="0 0 722 639" version="1.1" xmlns="http://www.w3.org/2000/svg">
<g id="#ffffffff">
<path fill="#ffffff" opacity="0.00" d=" M 0.00 0.00 L 722.00 0.00 L 722.00 639.00 L 0.00 639.00 L 0.00 0.00 M 358.41 26.46 C 311.37 28.85 264.91 43.06 224.80 67.81 C 221.91 69.65 218.78 71.18 216.23 73.51 C 214.64 74.12 216.50 77.18 217.76 75.94 C 220.50 74.79 222.92 73.03 225.43 71.45 C 257.59 51.38 293.92 38.14 331.39 32.51 C 340.60 31.40 349.80 30.21 359.07 29.74 C 379.29 28.54 399.59 30.25 419.57 33.40 C 477.72 43.19 532.47 72.13 573.30 114.68 C 608.40 150.66 633.34 196.42 644.62 245.40 C 646.95 254.56 648.19 263.94 649.64 273.27 C 651.88 288.72 651.99 304.39 651.63 319.97 C 651.35 334.35 649.13 348.59 646.70 362.74 C 641.59 387.45 633.61 411.65 622.08 434.13 C 621.35 436.23 619.16 438.97 621.12 440.97 C 622.66 440.28 623.59 438.83 624.36 437.40 C 647.68 391.64 658.35 339.49 654.56 288.26 C 650.97 238.92 634.31 190.52 606.30 149.69 C 579.45 110.20 542.41 77.68 499.70 56.30 C 456.32 34.16 407.02 24.00 358.41 26.46 M 144.37 91.39 C 137.22 92.06 130.30 94.12 123.58 96.58 C 122.04 97.22 119.70 97.85 120.19 100.02 C 124.75 100.29 128.96 98.15 133.40 97.51 C 144.30 95.46 156.11 98.18 164.70 105.31 C 168.10 108.21 171.39 111.35 173.93 115.05 C 175.18 116.41 174.22 118.24 173.77 119.72 C 154.06 166.76 134.56 213.89 114.93 260.96 C 113.45 264.44 112.13 268.00 110.31 271.33 C 107.67 276.18 103.37 280.03 98.42 282.41 C 94.88 284.07 90.88 284.07 87.18 285.13 C 87.18 285.54 87.18 286.36 87.18 286.78 C 91.42 287.44 95.73 287.19 100.00 287.23 C 110.33 287.23 120.67 287.16 131.00 287.28 C 133.62 287.29 136.25 287.27 138.85 286.85 C 138.85 286.44 138.85 285.62 138.85 285.22 C 135.28 283.92 130.79 283.99 128.32 280.68 C 125.06 276.74 125.93 271.10 127.68 266.70 C 132.88 253.52 138.07 240.34 143.08 227.09 C 143.80 225.56 144.27 223.74 145.64 222.66 C 149.73 222.00 153.89 222.43 158.01 222.37 C 175.69 222.33 193.37 222.46 211.05 222.29 C 212.44 222.32 213.88 222.32 215.21 222.80 C 216.62 225.60 217.41 228.66 218.43 231.62 C 222.67 243.94 226.52 256.42 231.53 268.46 C 239.33 288.07 249.97 306.80 264.50 322.20 C 262.99 325.91 260.41 329.06 258.67 332.66 C 255.06 339.94 252.34 347.81 251.71 355.96 C 250.86 367.10 255.08 378.28 262.30 386.69 C 270.23 396.29 281.61 403.01 293.87 405.18 C 299.45 406.20 305.16 405.60 310.73 404.78 C 322.74 403.18 334.43 399.81 345.86 395.85 C 348.96 394.78 351.98 393.46 354.85 391.88 C 363.32 387.24 371.49 382.02 379.06 376.02 C 380.49 374.89 382.01 373.86 383.71 373.20 C 385.67 376.87 386.84 380.90 388.22 384.82 C 392.88 398.49 397.37 412.45 398.15 426.97 C 398.55 435.00 398.03 443.30 394.84 450.78 C 390.51 461.69 380.98 469.84 370.36 474.39 C 363.14 478.09 354.99 479.09 347.04 480.03 C 333.83 481.22 320.05 479.88 307.99 474.02 C 295.60 468.08 286.00 457.36 279.75 445.28 C 278.92 444.17 278.39 442.27 276.81 442.12 C 275.29 441.61 274.70 442.88 274.38 444.11 C 275.56 447.18 277.65 449.78 279.52 452.45 C 285.60 460.94 293.22 468.34 301.97 474.04 C 307.64 477.80 314.38 479.33 320.85 481.12 C 338.34 484.96 357.30 483.65 373.39 475.41 C 380.48 471.94 387.21 467.33 391.77 460.76 C 399.51 450.67 402.32 437.46 401.06 424.95 C 399.70 410.48 394.56 396.78 389.79 383.17 C 388.44 379.19 386.35 375.39 385.87 371.16 C 388.57 367.47 392.46 364.89 395.68 361.68 C 409.75 348.18 421.68 332.58 432.15 316.17 C 438.01 306.36 446.07 297.39 456.60 292.53 C 463.43 288.95 471.56 288.34 479.02 290.01 C 488.83 292.68 497.91 297.73 505.66 304.29 C 507.21 305.57 509.96 307.68 511.36 305.03 C 511.23 303.14 509.60 301.85 508.42 300.54 C 501.02 293.65 492.13 287.91 482.12 285.83 C 474.12 284.45 465.64 284.87 458.12 288.09 C 445.40 293.33 435.38 303.56 427.91 314.89 C 417.14 332.56 404.79 349.45 389.77 363.77 C 388.23 365.24 386.68 366.71 384.94 367.94 C 383.85 367.32 383.63 365.94 383.14 364.91 C 372.75 334.44 365.20 302.81 363.46 270.58 C 363.33 267.20 362.93 263.78 363.47 260.43 C 365.98 257.26 369.51 255.14 372.53 252.52 C 385.09 242.06 397.76 231.74 410.44 221.43 C 413.76 218.77 417.19 216.22 420.15 213.15 C 430.54 202.00 440.89 190.46 447.76 176.73 C 450.31 171.79 452.37 166.52 453.09 160.98 C 454.17 153.88 452.31 146.48 448.52 140.44 C 443.52 133.21 434.49 130.09 426.04 129.64 C 415.11 129.11 404.58 134.37 397.12 142.11 C 389.19 149.96 383.46 159.66 378.68 169.66 C 370.88 186.79 365.76 205.05 362.52 223.56 C 361.90 226.94 361.88 230.45 360.84 233.75 C 359.63 235.55 357.79 236.78 356.12 238.12 C 330.84 257.25 305.34 276.38 283.30 299.28 C 282.28 300.38 281.29 301.56 280.72 302.98 C 282.21 306.08 284.53 308.67 286.65 311.36 C 288.92 314.12 291.13 317.06 294.12 319.09 C 296.58 318.09 298.31 315.98 300.16 314.17 C 308.36 305.65 317.48 298.13 326.37 290.37 C 334.14 283.78 342.04 277.35 349.98 270.98 C 353.28 268.34 356.35 265.38 360.00 263.23 C 360.40 265.81 360.55 268.42 360.73 271.02 C 362.40 301.29 369.43 331.06 379.30 359.65 C 380.36 363.04 381.86 366.32 382.54 369.83 C 379.92 372.84 376.41 374.89 373.21 377.23 C 363.64 383.99 353.00 389.16 341.87 392.79 C 329.63 396.76 316.94 400.20 303.96 399.81 C 296.57 399.91 289.10 398.10 282.77 394.25 C 277.21 390.85 272.94 385.60 270.20 379.72 C 267.39 373.70 265.08 366.97 266.44 360.26 C 267.64 355.10 270.13 350.34 272.84 345.83 C 275.20 342.26 277.41 338.52 280.41 335.45 C 282.31 335.35 283.99 336.54 285.70 337.22 C 297.15 342.86 310.45 344.58 322.94 341.93 C 326.30 341.17 329.73 340.38 332.76 338.67 C 332.82 338.11 332.95 336.98 333.01 336.41 C 328.33 336.68 323.67 337.71 318.96 337.17 C 305.39 336.28 292.99 328.91 283.64 319.36 C 272.95 308.91 265.05 296.05 258.10 282.92 C 247.89 262.92 240.99 241.50 233.55 220.38 C 225.88 199.00 218.48 177.53 210.83 156.15 C 205.62 141.73 200.37 127.09 191.62 114.37 C 185.33 105.37 176.91 97.36 166.41 93.60 C 159.40 91.01 151.76 90.64 144.37 91.39 M 86.44 321.33 C 83.08 326.17 82.35 332.26 82.27 338.01 C 82.07 348.91 84.81 359.60 88.15 369.90 C 90.30 376.90 93.73 383.39 96.88 389.97 C 92.92 385.91 89.91 381.07 86.15 376.84 C 82.57 372.76 78.49 369.12 74.12 365.90 C 68.54 361.75 62.35 358.46 56.99 354.00 C 54.23 351.73 51.85 349.03 48.95 346.94 C 47.43 351.04 48.93 355.43 49.47 359.59 C 52.02 374.50 57.23 389.86 68.58 400.41 C 76.96 408.83 88.66 412.71 100.08 414.90 C 103.93 415.84 108.15 416.22 111.51 418.50 C 113.05 420.44 113.89 422.81 114.90 425.05 C 117.49 431.30 120.61 437.30 123.75 443.29 C 126.34 448.25 129.53 452.89 131.97 457.94 C 127.98 454.90 125.34 450.59 122.37 446.63 C 118.96 442.02 114.09 438.86 109.70 435.28 C 105.45 431.77 100.21 429.87 95.12 427.95 C 86.76 424.89 78.34 422.02 70.20 418.44 C 66.89 422.27 65.95 427.67 67.56 432.45 C 71.35 445.14 81.91 456.31 95.26 458.68 C 107.41 460.95 119.53 463.85 131.93 464.38 C 133.97 464.32 135.41 465.94 136.82 467.18 C 141.98 472.07 146.15 477.90 150.10 483.78 C 146.13 482.10 142.28 480.09 138.15 478.83 C 134.23 477.62 130.16 476.62 126.76 474.22 C 124.98 473.21 122.84 471.26 120.73 472.61 C 117.38 475.28 118.04 482.86 123.00 483.14 C 125.38 482.53 127.02 480.41 129.19 479.31 C 133.34 479.77 137.20 481.55 141.14 482.84 C 146.52 484.60 150.78 488.42 155.23 491.75 C 157.28 493.29 159.22 494.99 160.98 496.85 C 156.55 495.27 152.26 493.20 147.60 492.36 C 133.35 489.68 118.79 490.80 104.42 491.45 C 99.66 491.74 94.84 492.01 90.26 493.38 C 90.22 495.86 91.88 497.86 93.20 499.81 C 96.13 503.80 99.11 507.88 103.10 510.89 C 107.29 514.08 112.20 516.11 117.09 517.97 C 126.87 521.85 137.59 522.53 148.00 522.30 C 154.45 521.87 161.30 521.37 166.96 517.94 C 169.08 516.58 170.77 514.60 173.03 513.45 C 177.63 514.20 181.56 516.97 184.83 520.17 C 187.90 523.16 191.72 525.46 194.06 529.15 C 192.23 529.21 190.18 529.68 188.58 528.52 C 183.80 525.47 179.47 521.36 173.77 520.09 C 171.22 519.33 167.82 520.04 166.62 522.64 C 165.82 525.18 165.92 527.88 165.39 530.48 C 164.00 532.16 161.65 532.70 160.12 534.26 C 158.29 537.18 159.92 540.74 161.87 543.15 C 164.22 546.31 168.19 547.79 172.04 547.87 C 177.75 548.09 184.07 546.39 187.61 541.61 C 189.68 539.06 189.85 535.66 190.81 532.65 C 194.44 531.25 198.77 531.73 201.86 534.15 C 206.20 537.38 210.70 540.40 214.87 543.84 C 209.12 543.46 203.31 542.70 197.57 543.62 C 189.94 544.88 182.76 548.11 176.31 552.31 C 175.07 553.19 173.51 554.03 173.21 555.68 C 182.12 559.44 191.62 562.00 201.30 562.62 C 206.94 562.88 212.76 562.28 217.96 559.95 C 221.78 558.26 224.19 554.73 227.22 552.04 C 230.13 552.62 232.54 554.46 235.09 555.86 C 271.78 576.23 313.01 588.54 354.94 590.91 C 374.79 592.49 394.76 591.10 414.45 588.44 C 417.54 587.98 420.67 587.62 423.65 586.66 C 423.70 586.02 423.80 584.72 423.85 584.08 C 419.96 583.93 416.13 584.77 412.30 585.31 C 396.96 587.26 381.49 588.71 366.01 588.21 C 357.56 587.86 349.11 587.27 340.71 586.31 C 324.14 584.63 307.82 580.92 291.85 576.24 C 275.77 571.61 260.39 564.89 245.35 557.64 C 241.97 555.88 238.21 554.26 236.07 550.94 C 233.73 547.31 232.08 543.27 230.82 539.16 C 229.75 535.90 230.49 532.48 230.53 529.15 C 230.61 525.89 225.59 523.63 223.67 526.70 C 222.34 528.80 224.32 530.91 225.34 532.66 C 227.03 535.00 227.75 537.83 228.53 540.57 C 229.42 543.74 230.78 546.75 231.92 549.84 C 226.06 546.68 220.10 543.41 215.09 539.01 C 216.83 535.40 219.30 532.07 220.06 528.05 C 222.08 518.64 219.71 508.86 215.67 500.32 C 213.81 496.59 212.28 492.47 209.05 489.67 C 201.18 496.46 199.38 508.00 201.31 517.78 C 202.32 523.59 205.53 528.61 207.93 533.90 C 204.79 532.28 201.73 530.30 199.59 527.42 C 193.28 519.15 191.27 508.30 192.28 498.11 C 192.80 493.44 193.07 488.72 193.97 484.10 C 194.39 481.87 197.22 481.58 198.21 479.74 C 198.74 477.07 198.34 473.59 195.73 472.13 C 193.35 470.91 189.76 470.64 188.22 473.29 C 188.96 476.60 191.57 479.43 191.15 482.98 C 190.56 491.23 188.74 499.44 189.43 507.76 C 189.75 512.72 191.56 517.40 192.65 522.21 C 184.92 516.06 177.56 509.34 170.97 501.98 C 173.77 500.18 177.31 499.13 179.11 496.13 C 182.41 490.84 182.93 484.37 182.62 478.29 C 182.12 469.71 180.01 461.01 175.21 453.79 C 173.94 452.06 172.43 450.07 170.15 449.78 C 164.32 457.92 160.65 467.88 161.22 478.00 C 161.11 483.91 163.38 489.43 164.89 495.03 C 161.83 492.70 159.38 489.62 157.90 486.07 C 154.88 479.12 152.43 471.83 151.58 464.28 C 151.11 459.63 151.26 454.68 153.36 450.41 C 154.82 448.50 157.23 447.55 158.65 445.61 C 159.32 442.88 157.23 439.93 154.30 440.25 C 152.19 441.22 152.05 443.74 151.48 445.70 C 150.41 450.77 148.34 455.72 148.58 461.00 C 148.60 467.46 150.84 473.60 151.99 479.90 C 148.20 475.64 145.00 470.90 141.71 466.25 C 138.68 462.06 137.88 456.82 137.19 451.83 C 136.20 445.95 139.92 440.84 141.41 435.40 C 144.03 426.91 145.61 416.96 140.82 408.92 C 136.59 409.60 134.75 413.99 133.64 417.62 C 131.75 424.82 131.35 432.40 132.28 439.78 C 132.78 444.61 134.01 449.33 134.64 454.15 C 133.24 451.73 132.17 449.12 131.58 446.39 C 129.82 438.69 129.01 430.82 128.19 422.99 C 127.96 420.06 127.52 417.10 127.95 414.18 C 128.93 412.43 130.94 411.62 132.49 410.45 C 137.95 407.07 142.59 402.44 146.07 397.05 C 151.14 389.51 154.29 380.42 153.63 371.26 C 153.38 368.10 152.89 364.76 150.94 362.16 C 143.78 364.44 138.26 370.14 134.38 376.39 C 131.39 381.04 129.69 386.34 127.15 391.23 C 125.82 387.23 125.07 382.92 122.58 379.42 C 120.56 376.56 118.22 373.78 115.08 372.10 C 113.91 371.19 111.79 370.74 111.87 368.90 C 111.50 364.11 111.71 359.24 110.39 354.58 C 107.63 343.78 103.28 332.81 94.92 325.10 C 92.59 323.06 89.74 320.77 86.44 321.33 M 440.33 365.43 L 439.55 365.52 C 439.47 366.06 439.32 367.15 439.25 367.70 C 442.62 368.31 446.17 368.21 449.37 369.58 C 454.11 371.64 457.93 376.13 458.54 381.35 C 459.08 385.88 458.81 390.45 458.85 395.00 C 458.83 436.67 458.86 478.33 458.84 520.00 C 458.81 524.32 459.03 528.66 458.71 532.99 C 454.99 532.49 451.96 530.12 449.02 527.98 C 439.21 520.75 433.12 509.45 430.14 497.82 C 428.83 493.26 428.47 488.47 426.92 483.98 C 426.04 484.37 425.19 484.83 424.38 485.36 C 423.99 491.86 424.98 498.39 426.25 504.76 C 429.07 518.01 437.13 530.10 448.55 537.47 C 464.17 547.84 483.67 550.23 502.03 549.22 C 515.32 548.19 528.80 545.31 540.40 538.45 C 551.31 532.30 560.37 522.49 564.49 510.55 C 569.79 494.87 567.67 476.56 557.95 463.03 C 550.13 452.43 538.03 445.69 525.42 442.53 C 522.64 441.84 519.75 441.52 517.13 440.29 C 520.34 438.16 523.80 436.31 526.41 433.42 C 535.70 423.74 538.08 408.91 534.75 396.23 C 532.34 386.20 525.05 377.85 516.13 372.93 C 505.18 366.85 492.38 365.02 480.01 365.31 C 466.78 365.47 453.54 365.10 440.33 365.43 Z" />
<path fill="#ffffff" opacity="0.00" d=" M 181.50 129.45 L 181.91 128.76 C 187.08 138.36 190.33 148.86 193.90 159.14 C 199.31 175.32 204.75 191.50 210.39 207.62 C 211.14 209.87 212.05 212.18 211.86 214.60 C 193.58 214.78 175.28 214.53 156.99 214.69 C 154.05 214.69 151.04 214.95 148.18 214.08 C 157.72 189.64 167.18 165.16 176.73 140.73 C 178.26 136.94 179.40 132.97 181.50 129.45 Z" />
<path fill="#ffffff" opacity="0.00" d=" M 420.41 134.43 C 429.88 133.29 439.37 141.47 439.66 151.01 C 439.50 155.39 437.03 159.24 434.86 162.90 C 428.76 172.23 421.16 180.45 413.25 188.26 C 401.45 200.17 388.67 211.05 375.91 221.90 C 372.27 224.87 368.78 228.03 364.99 230.81 C 365.50 221.67 367.79 212.76 369.92 203.89 C 372.32 195.32 374.97 186.78 378.66 178.67 C 385.21 165.62 393.39 153.15 404.19 143.20 C 408.76 139.05 414.18 135.35 420.41 134.43 Z" />
<path fill="#ffffff" opacity="0.00" d=" M 87.15 325.75 C 89.32 327.65 90.00 330.53 90.77 333.19 C 94.04 345.03 96.71 357.03 98.83 369.13 C 100.18 376.38 101.70 383.66 101.85 391.06 C 98.69 387.98 96.90 383.88 95.07 379.95 C 89.59 367.65 85.89 354.49 84.84 341.04 C 84.49 335.86 85.03 330.53 87.15 325.75 Z" />
<path fill="#ffffff" opacity="0.00" d=" M 91.34 325.85 C 97.09 329.90 100.60 336.28 103.48 342.53 C 107.52 352.02 109.95 362.44 108.63 372.78 C 107.93 377.37 106.17 381.71 104.42 385.99 C 101.40 365.68 97.38 345.48 91.34 325.85 Z" />
<path fill="#ffffff" opacity="0.00" d=" M 56.26 356.96 C 61.28 360.55 66.37 364.03 71.50 367.47 C 79.33 372.87 85.61 380.16 91.26 387.73 C 94.38 391.98 97.69 396.15 100.02 400.91 C 96.39 398.28 93.35 394.97 90.08 391.92 C 82.61 385.06 75.32 378.01 68.16 370.84 C 63.89 366.49 59.31 362.31 56.26 356.96 Z" />
<path fill="#ffffff" opacity="0.00" d=" M 52.18 357.98 C 54.92 360.19 57.03 363.03 59.30 365.69 C 71.95 379.39 86.11 391.55 99.25 404.74 C 102.12 407.50 105.00 410.30 107.22 413.63 C 98.58 411.78 89.71 410.25 81.76 406.20 C 69.39 400.25 60.74 388.40 56.36 375.64 C 54.50 369.88 52.84 364.01 52.18 357.98 Z" />
<path fill="#ffffff" opacity="0.00" d=" M 145.34 368.47 L 145.95 368.05 C 144.97 370.90 143.67 373.62 142.34 376.32 C 138.64 383.76 135.65 391.53 131.93 398.96 C 131.00 400.92 129.63 402.63 128.05 404.12 C 127.93 396.91 130.69 390.08 133.60 383.62 C 136.38 377.85 139.87 372.06 145.34 368.47 Z" />
<path fill="#ffffff" opacity="0.00" d=" M 149.41 368.67 C 149.74 368.51 150.40 368.20 150.73 368.04 C 151.27 374.24 150.89 380.66 148.48 386.47 C 144.83 396.42 137.36 404.69 128.30 410.06 C 135.96 399.31 140.21 386.74 145.95 374.97 C 147.02 372.83 147.86 370.52 149.41 368.67 Z" />
<path fill="#ffffff" opacity="0.00" d=" M 111.59 373.79 L 112.00 373.03 C 112.58 377.57 112.18 382.23 113.29 386.71 C 114.40 391.19 116.23 395.47 118.52 399.46 C 123.76 407.61 125.39 417.48 125.80 427.01 C 126.13 432.36 127.21 437.63 127.80 442.96 C 123.40 436.61 120.96 429.24 117.69 422.31 C 113.89 415.06 111.15 407.33 108.33 399.67 C 107.21 396.67 106.46 393.44 107.12 390.25 C 108.08 384.65 109.58 379.09 111.59 373.79 Z" />
<path fill="#ffffff" opacity="0.00" d=" M 476.24 374.13 C 481.18 373.39 486.20 374.12 491.10 374.84 C 498.90 376.18 506.91 379.85 511.25 386.76 C 516.80 395.32 517.37 406.10 516.01 415.95 C 514.68 425.80 508.86 435.41 499.58 439.58 C 494.87 442.11 489.46 442.23 484.33 443.20 C 484.33 443.62 484.32 444.46 484.32 444.88 C 488.49 445.69 492.77 445.60 496.99 446.07 C 505.05 446.72 513.01 448.59 520.55 451.52 C 530.28 455.55 539.28 462.52 543.69 472.31 C 547.71 480.66 548.36 490.20 547.36 499.30 C 546.08 509.61 541.53 519.74 533.75 526.76 C 523.94 535.85 510.22 539.78 497.05 539.72 C 490.15 539.67 483.17 539.80 476.35 538.58 C 475.62 534.09 475.95 529.52 475.90 525.00 C 475.92 479.00 475.91 433.00 475.91 387.00 C 475.93 382.71 475.69 378.39 476.24 374.13 Z" />
<path fill="#ffffff" opacity="0.00" d=" M 119.08 379.92 C 123.99 384.57 124.03 391.84 123.69 398.11 C 121.73 392.17 120.03 386.11 119.08 379.92 Z" />
<path fill="#ffffff" opacity="0.00" d=" M 115.74 382.90 C 118.23 385.65 118.31 389.60 118.84 393.09 C 116.84 390.07 115.70 386.54 115.74 382.90 Z" />
<path fill="#ffffff" opacity="0.00" d=" M 99.04 393.11 C 101.37 395.39 103.80 397.73 105.20 400.74 C 106.43 403.38 107.14 406.22 107.77 409.06 C 104.81 403.77 102.19 398.29 99.04 393.11 Z" />
<path fill="#ffffff" opacity="0.00" d=" M 136.49 418.65 L 136.79 417.91 C 136.86 421.06 136.37 424.21 135.15 427.14 C 135.08 424.25 135.21 421.29 136.49 418.65 Z" />
<path fill="#ffffff" opacity="0.00" d=" M 140.58 418.68 L 140.92 417.86 C 141.79 425.83 139.54 433.81 136.18 440.98 C 136.78 433.43 138.02 425.82 140.58 418.68 Z" />
<path fill="#ffffff" opacity="0.00" d=" M 70.07 423.00 C 73.23 425.84 75.39 429.60 78.66 432.33 C 84.04 437.01 90.16 441.22 97.25 442.74 C 105.33 444.57 113.63 446.68 120.50 451.53 C 124.11 454.27 127.53 457.38 130.06 461.17 C 122.51 461.52 115.11 459.61 107.74 458.26 C 100.32 456.70 92.42 456.20 85.79 452.19 C 78.80 447.86 73.60 440.96 70.69 433.34 C 69.39 430.04 69.50 426.43 70.07 423.00 Z" />
<path fill="#ffffff" opacity="0.00" d=" M 75.09 423.97 C 80.47 425.30 85.59 427.45 90.82 429.25 C 96.64 431.45 102.73 433.41 107.71 437.28 C 111.42 440.16 115.45 442.77 118.27 446.61 C 114.13 445.14 110.16 443.23 105.91 442.09 C 100.57 440.49 94.86 439.90 89.96 437.07 C 84.20 433.79 78.79 429.54 75.09 423.97 Z" />
<path fill="#ffffff" opacity="0.00" d=" M 154.28 444.08 L 155.00 443.68 L 155.71 444.10 L 155.69 444.93 L 154.97 445.33 L 154.27 444.91 L 154.28 444.08 Z" />
<path fill="#ffffff" opacity="0.00" d=" M 172.93 455.89 C 175.79 459.27 177.12 463.57 178.25 467.77 C 179.92 473.89 180.25 480.35 179.58 486.64 C 179.02 491.27 176.84 496.35 172.08 497.95 C 174.15 488.52 173.85 478.85 173.55 469.26 C 173.32 464.80 172.67 460.36 172.93 455.89 Z" />
<path fill="#ffffff" opacity="0.00" d=" M 169.17 457.54 L 169.66 456.93 C 170.60 464.58 171.06 472.29 171.15 479.99 C 171.05 485.20 171.26 490.64 169.05 495.50 C 164.27 487.85 162.91 478.17 164.47 469.36 C 165.36 465.22 166.36 460.85 169.17 457.54 Z" />
<path fill="#ffffff" opacity="0.00" d=" M 191.99 474.14 C 193.05 474.27 194.07 474.56 195.05 475.00 C 195.48 476.26 195.76 477.56 196.01 478.87 C 193.97 478.06 191.59 476.73 191.99 474.14 Z" />
<path fill="#ffffff" opacity="0.00" d=" M 122.03 475.14 C 123.53 475.22 124.93 475.90 125.82 477.13 C 125.64 478.73 124.07 479.53 122.92 480.40 C 121.37 479.03 121.66 476.93 122.03 475.14 Z" />
<path fill="#ffffff" opacity="0.00" d=" M 121.41 493.48 C 131.28 493.20 141.37 493.28 150.92 496.07 C 157.22 497.86 163.17 501.47 166.91 506.95 C 162.09 505.82 157.43 503.98 152.47 503.51 C 145.74 502.83 138.98 502.58 132.28 501.60 C 127.28 501.09 122.15 499.93 117.17 501.14 C 117.06 501.59 116.84 502.49 116.74 502.94 C 119.05 503.75 121.52 503.66 123.94 503.72 C 131.04 503.76 138.04 505.23 145.12 505.62 C 153.48 506.09 162.24 507.28 169.37 512.00 C 166.33 516.47 160.77 517.89 155.75 518.78 C 144.60 520.58 133.07 519.72 122.18 516.81 C 114.26 514.25 106.03 510.99 100.44 504.55 C 98.00 501.73 95.50 498.82 94.16 495.29 C 103.15 493.74 112.32 493.73 121.41 493.48 Z" />
<path fill="#ffffff" opacity="0.00" d=" M 206.46 497.58 L 206.87 496.85 C 207.03 502.25 206.52 507.66 206.97 513.05 C 207.24 518.08 208.29 523.03 208.69 528.04 C 205.51 524.17 204.35 519.13 203.60 514.29 C 202.90 508.63 203.52 502.57 206.46 497.58 Z" />
<path fill="#ffffff" opacity="0.00" d=" M 210.21 496.92 C 212.99 499.82 214.16 503.74 215.56 507.41 C 217.58 513.26 219.13 519.61 217.77 525.80 C 217.08 528.82 216.13 531.82 214.67 534.57 C 214.33 534.57 213.65 534.57 213.31 534.56 C 210.13 522.36 208.27 509.50 210.21 496.92 Z" />
<path fill="#ffffff" opacity="0.00" d=" M 171.36 508.15 C 172.75 507.69 173.24 508.17 172.82 509.58 C 171.42 510.03 170.93 509.56 171.36 508.15 Z" />
<path fill="#ffffff" opacity="0.00" d=" M 171.31 522.41 C 174.55 522.35 177.36 524.33 180.05 525.91 C 182.77 527.78 185.80 529.54 187.62 532.39 C 188.04 536.85 185.34 541.37 181.33 543.30 C 177.62 545.11 173.24 546.01 169.21 544.85 C 165.46 543.79 162.45 540.23 162.25 536.32 C 163.69 534.07 166.56 533.90 168.95 533.69 C 174.62 533.15 180.27 534.49 185.93 533.98 C 185.88 533.52 185.77 532.60 185.71 532.14 C 180.25 530.71 174.54 531.44 168.98 530.77 C 168.62 528.04 167.67 523.16 171.31 522.41 Z" />
<path fill="#ffffff" opacity="0.00" d=" M 226.28 528.48 C 227.43 527.58 228.84 529.57 227.75 530.46 C 226.60 531.34 225.19 529.35 226.28 528.48 Z" />
<path fill="#ffffff" opacity="0.00" d=" M 198.35 546.37 C 204.37 545.37 210.60 545.78 216.44 547.56 C 217.79 547.95 218.96 548.78 220.11 549.57 C 208.42 550.79 196.67 551.44 184.99 552.76 C 183.50 552.73 182.36 553.68 181.98 555.10 C 187.38 555.50 192.75 554.63 198.12 554.28 C 206.38 553.64 214.62 552.71 222.89 552.24 C 221.22 554.46 219.12 556.41 216.54 557.52 C 209.20 560.86 200.80 560.63 193.07 558.94 C 188.39 557.86 183.52 557.09 179.22 554.85 L 179.25 554.16 C 184.79 549.99 191.56 547.54 198.35 546.37 Z" />
</g>
<g id="#fdde6c">
<path fill="#fdde6c" opacity="1.00" d=" M 358.41 26.46 C 407.02 24.00 456.32 34.16 499.70 56.30 C 542.41 77.68 579.45 110.20 606.30 149.69 C 634.31 190.52 650.97 238.92 654.56 288.26 C 658.35 339.49 647.68 391.64 624.36 437.40 C 623.59 438.83 622.66 440.28 621.12 440.97 C 619.16 438.97 621.35 436.23 622.08 434.13 C 633.61 411.65 641.59 387.45 646.70 362.74 C 649.13 348.59 651.35 334.35 651.63 319.97 C 651.99 304.39 651.88 288.72 649.64 273.27 C 648.19 263.94 646.95 254.56 644.62 245.40 C 633.34 196.42 608.40 150.66 573.30 114.68 C 532.47 72.13 477.72 43.19 419.57 33.40 C 399.59 30.25 379.29 28.54 359.07 29.74 C 349.80 30.21 340.60 31.40 331.39 32.51 C 293.92 38.14 257.59 51.38 225.43 71.45 C 222.92 73.03 220.50 74.79 217.76 75.94 C 216.50 77.18 214.64 74.12 216.23 73.51 C 218.78 71.18 221.91 69.65 224.80 67.81 C 264.91 43.06 311.37 28.85 358.41 26.46 Z" />
<path fill="#fdde6c" opacity="1.00" d=" M 144.37 91.39 C 151.76 90.64 159.40 91.01 166.41 93.60 C 176.91 97.36 185.33 105.37 191.62 114.37 C 200.37 127.09 205.62 141.73 210.83 156.15 C 218.48 177.53 225.88 199.00 233.55 220.38 C 240.99 241.50 247.89 262.92 258.10 282.92 C 265.05 296.05 272.95 308.91 283.64 319.36 C 292.99 328.91 305.39 336.28 318.96 337.17 C 323.67 337.71 328.33 336.68 333.01 336.41 C 332.95 336.98 332.82 338.11 332.76 338.67 C 329.73 340.38 326.30 341.17 322.94 341.93 C 310.45 344.58 297.15 342.86 285.70 337.22 C 283.99 336.54 282.31 335.35 280.41 335.45 C 277.41 338.52 275.20 342.26 272.84 345.83 C 270.13 350.34 267.64 355.10 266.44 360.26 C 265.08 366.97 267.39 373.70 270.20 379.72 C 272.94 385.60 277.21 390.85 282.77 394.25 C 289.10 398.10 296.57 399.91 303.96 399.81 C 316.94 400.20 329.63 396.76 341.87 392.79 C 353.00 389.16 363.64 383.99 373.21 377.23 C 376.41 374.89 379.92 372.84 382.54 369.83 C 381.86 366.32 380.36 363.04 379.30 359.65 C 369.43 331.06 362.40 301.29 360.73 271.02 C 360.55 268.42 360.40 265.81 360.00 263.23 C 356.35 265.38 353.28 268.34 349.98 270.98 C 342.04 277.35 334.14 283.78 326.37 290.37 C 317.48 298.13 308.36 305.65 300.16 314.17 C 298.31 315.98 296.58 318.09 294.12 319.09 C 291.13 317.06 288.92 314.12 286.65 311.36 C 284.53 308.67 282.21 306.08 280.72 302.98 C 281.29 301.56 282.28 300.38 283.30 299.28 C 305.34 276.38 330.84 257.25 356.12 238.12 C 357.79 236.78 359.63 235.55 360.84 233.75 C 361.88 230.45 361.90 226.94 362.52 223.56 C 365.76 205.05 370.88 186.79 378.68 169.66 C 383.46 159.66 389.19 149.96 397.12 142.11 C 404.58 134.37 415.11 129.11 426.04 129.64 C 434.49 130.09 443.52 133.21 448.52 140.44 C 452.31 146.48 454.17 153.88 453.09 160.98 C 452.37 166.52 450.31 171.79 447.76 176.73 C 440.89 190.46 430.54 202.00 420.15 213.15 C 417.19 216.22 413.76 218.77 410.44 221.43 C 397.76 231.74 385.09 242.06 372.53 252.52 C 369.51 255.14 365.98 257.26 363.47 260.43 C 362.93 263.78 363.33 267.20 363.46 270.58 C 365.20 302.81 372.75 334.44 383.14 364.91 C 383.63 365.94 383.85 367.32 384.94 367.94 C 386.68 366.71 388.23 365.24 389.77 363.77 C 404.79 349.45 417.14 332.56 427.91 314.89 C 435.38 303.56 445.40 293.33 458.12 288.09 C 465.64 284.87 474.12 284.45 482.12 285.83 C 492.13 287.91 501.02 293.65 508.42 300.54 C 509.60 301.85 511.23 303.14 511.36 305.03 C 509.96 307.68 507.21 305.57 505.66 304.29 C 497.91 297.73 488.83 292.68 479.02 290.01 C 471.56 288.34 463.43 288.95 456.60 292.53 C 446.07 297.39 438.01 306.36 432.15 316.17 C 421.68 332.58 409.75 348.18 395.68 361.68 C 392.46 364.89 388.57 367.47 385.87 371.16 C 386.35 375.39 388.44 379.19 389.79 383.17 C 394.56 396.78 399.70 410.48 401.06 424.95 C 402.32 437.46 399.51 450.67 391.77 460.76 C 387.21 467.33 380.48 471.94 373.39 475.41 C 357.30 483.65 338.34 484.96 320.85 481.12 C 314.38 479.33 307.64 477.80 301.97 474.04 C 293.22 468.34 285.60 460.94 279.52 452.45 C 277.65 449.78 275.56 447.18 274.38 444.11 C 274.70 442.88 275.29 441.61 276.81 442.12 C 278.39 442.27 278.92 444.17 279.75 445.28 C 286.00 457.36 295.60 468.08 307.99 474.02 C 320.05 479.88 333.83 481.22 347.04 480.03 C 354.99 479.09 363.14 478.09 370.36 474.39 C 380.98 469.84 390.51 461.69 394.84 450.78 C 398.03 443.30 398.55 435.00 398.15 426.97 C 397.37 412.45 392.88 398.49 388.22 384.82 C 386.84 380.90 385.67 376.87 383.71 373.20 C 382.01 373.86 380.49 374.89 379.06 376.02 C 371.49 382.02 363.32 387.24 354.85 391.88 C 351.98 393.46 348.96 394.78 345.86 395.85 C 334.43 399.81 322.74 403.18 310.73 404.78 C 305.16 405.60 299.45 406.20 293.87 405.18 C 281.61 403.01 270.23 396.29 262.30 386.69 C 255.08 378.28 250.86 367.10 251.71 355.96 C 252.34 347.81 255.06 339.94 258.67 332.66 C 260.41 329.06 262.99 325.91 264.50 322.20 C 249.97 306.80 239.33 288.07 231.53 268.46 C 226.52 256.42 222.67 243.94 218.43 231.62 C 217.41 228.66 216.62 225.60 215.21 222.80 C 213.88 222.32 212.44 222.32 211.05 222.29 C 193.37 222.46 175.69 222.33 158.01 222.37 C 153.89 222.43 149.73 222.00 145.64 222.66 C 144.27 223.74 143.80 225.56 143.08 227.09 C 138.07 240.34 132.88 253.52 127.68 266.70 C 125.93 271.10 125.06 276.74 128.32 280.68 C 130.79 283.99 135.28 283.92 138.85 285.22 C 138.85 285.62 138.85 286.44 138.85 286.85 C 136.25 287.27 133.62 287.29 131.00 287.28 C 120.67 287.16 110.33 287.23 100.00 287.23 C 95.73 287.19 91.42 287.44 87.18 286.78 C 87.18 286.36 87.18 285.54 87.18 285.13 C 90.88 284.07 94.88 284.07 98.42 282.41 C 103.37 280.03 107.67 276.18 110.31 271.33 C 112.13 268.00 113.45 264.44 114.93 260.96 C 134.56 213.89 154.06 166.76 173.77 119.72 C 174.22 118.24 175.18 116.41 173.93 115.05 C 171.39 111.35 168.10 108.21 164.70 105.31 C 156.11 98.18 144.30 95.46 133.40 97.51 C 128.96 98.15 124.75 100.29 120.19 100.02 C 119.70 97.85 122.04 97.22 123.58 96.58 C 130.30 94.12 137.22 92.06 144.37 91.39 M 181.50 129.45 C 179.40 132.97 178.26 136.94 176.73 140.73 C 167.18 165.16 157.72 189.64 148.18 214.08 C 151.04 214.95 154.05 214.69 156.99 214.69 C 175.28 214.53 193.58 214.78 211.86 214.60 C 212.05 212.18 211.14 209.87 210.39 207.62 C 204.75 191.50 199.31 175.32 193.90 159.14 C 190.33 148.86 187.08 138.36 181.91 128.76 L 181.50 129.45 M 420.41 134.43 C 414.18 135.35 408.76 139.05 404.19 143.20 C 393.39 153.15 385.21 165.62 378.66 178.67 C 374.97 186.78 372.32 195.32 369.92 203.89 C 367.79 212.76 365.50 221.67 364.99 230.81 C 368.78 228.03 372.27 224.87 375.91 221.90 C 388.67 211.05 401.45 200.17 413.25 188.26 C 421.16 180.45 428.76 172.23 434.86 162.90 C 437.03 159.24 439.50 155.39 439.66 151.01 C 439.37 141.47 429.88 133.29 420.41 134.43 Z" />
<path fill="#fdde6c" opacity="1.00" d=" M 86.44 321.33 C 89.74 320.77 92.59 323.06 94.92 325.10 C 103.28 332.81 107.63 343.78 110.39 354.58 C 111.71 359.24 111.50 364.11 111.87 368.90 C 111.79 370.74 113.91 371.19 115.08 372.10 C 118.22 373.78 120.56 376.56 122.58 379.42 C 125.07 382.92 125.82 387.23 127.15 391.23 C 129.69 386.34 131.39 381.04 134.38 376.39 C 138.26 370.14 143.78 364.44 150.94 362.16 C 152.89 364.76 153.38 368.10 153.63 371.26 C 154.29 380.42 151.14 389.51 146.07 397.05 C 142.59 402.44 137.95 407.07 132.49 410.45 C 130.94 411.62 128.93 412.43 127.95 414.18 C 127.52 417.10 127.96 420.06 128.19 422.99 C 129.01 430.82 129.82 438.69 131.58 446.39 C 132.17 449.12 133.24 451.73 134.64 454.15 C 134.01 449.33 132.78 444.61 132.28 439.78 C 131.35 432.40 131.75 424.82 133.64 417.62 C 134.75 413.99 136.59 409.60 140.82 408.92 C 145.61 416.96 144.03 426.91 141.41 435.40 C 139.92 440.84 136.20 445.95 137.19 451.83 C 137.88 456.82 138.68 462.06 141.71 466.25 C 145.00 470.90 148.20 475.64 151.99 479.90 C 150.84 473.60 148.60 467.46 148.58 461.00 C 148.34 455.72 150.41 450.77 151.48 445.70 C 152.05 443.74 152.19 441.22 154.30 440.25 C 157.23 439.93 159.32 442.88 158.65 445.61 C 157.23 447.55 154.82 448.50 153.36 450.41 C 151.26 454.68 151.11 459.63 151.58 464.28 C 152.43 471.83 154.88 479.12 157.90 486.07 C 159.38 489.62 161.83 492.70 164.89 495.03 C 163.38 489.43 161.11 483.91 161.22 478.00 C 160.65 467.88 164.32 457.92 170.15 449.78 C 172.43 450.07 173.94 452.06 175.21 453.79 C 180.01 461.01 182.12 469.71 182.62 478.29 C 182.93 484.37 182.41 490.84 179.11 496.13 C 177.31 499.13 173.77 500.18 170.97 501.98 C 177.56 509.34 184.92 516.06 192.65 522.21 C 191.56 517.40 189.75 512.72 189.43 507.76 C 188.74 499.44 190.56 491.23 191.15 482.98 C 191.57 479.43 188.96 476.60 188.22 473.29 C 189.76 470.64 193.35 470.91 195.73 472.13 C 198.34 473.59 198.74 477.07 198.21 479.74 C 197.22 481.58 194.39 481.87 193.97 484.10 C 193.07 488.72 192.80 493.44 192.28 498.11 C 191.27 508.30 193.28 519.15 199.59 527.42 C 201.73 530.30 204.79 532.28 207.93 533.90 C 205.53 528.61 202.32 523.59 201.31 517.78 C 199.38 508.00 201.18 496.46 209.05 489.67 C 212.28 492.47 213.81 496.59 215.67 500.32 C 219.71 508.86 222.08 518.64 220.06 528.05 C 219.30 532.07 216.83 535.40 215.09 539.01 C 220.10 543.41 226.06 546.68 231.92 549.84 C 230.78 546.75 229.42 543.74 228.53 540.57 C 227.75 537.83 227.03 535.00 225.34 532.66 C 224.32 530.91 222.34 528.80 223.67 526.70 C 225.59 523.63 230.61 525.89 230.53 529.15 C 230.49 532.48 229.75 535.90 230.82 539.16 C 232.08 543.27 233.73 547.31 236.07 550.94 C 238.21 554.26 241.97 555.88 245.35 557.64 C 260.39 564.89 275.77 571.61 291.85 576.24 C 307.82 580.92 324.14 584.63 340.71 586.31 C 349.11 587.27 357.56 587.86 366.01 588.21 C 381.49 588.71 396.96 587.26 412.30 585.31 C 416.13 584.77 419.96 583.93 423.85 584.08 C 423.80 584.72 423.70 586.02 423.65 586.66 C 420.67 587.62 417.54 587.98 414.45 588.44 C 394.76 591.10 374.79 592.49 354.94 590.91 C 313.01 588.54 271.78 576.23 235.09 555.86 C 232.54 554.46 230.13 552.62 227.22 552.04 C 224.19 554.73 221.78 558.26 217.96 559.95 C 212.76 562.28 206.94 562.88 201.30 562.62 C 191.62 562.00 182.12 559.44 173.21 555.68 C 173.51 554.03 175.07 553.19 176.31 552.31 C 182.76 548.11 189.94 544.88 197.57 543.62 C 203.31 542.70 209.12 543.46 214.87 543.84 C 210.70 540.40 206.20 537.38 201.86 534.15 C 198.77 531.73 194.44 531.25 190.81 532.65 C 189.85 535.66 189.68 539.06 187.61 541.61 C 184.07 546.39 177.75 548.09 172.04 547.87 C 168.19 547.79 164.22 546.31 161.87 543.15 C 159.92 540.74 158.29 537.18 160.12 534.26 C 161.65 532.70 164.00 532.16 165.39 530.48 C 165.92 527.88 165.82 525.18 166.62 522.64 C 167.82 520.04 171.22 519.33 173.77 520.09 C 179.47 521.36 183.80 525.47 188.58 528.52 C 190.18 529.68 192.23 529.21 194.06 529.15 C 191.72 525.46 187.90 523.16 184.83 520.17 C 181.56 516.97 177.63 514.20 173.03 513.45 C 170.77 514.60 169.08 516.58 166.96 517.94 C 161.30 521.37 154.45 521.87 148.00 522.30 C 137.59 522.53 126.87 521.85 117.09 517.97 C 112.20 516.11 107.29 514.08 103.10 510.89 C 99.11 507.88 96.13 503.80 93.20 499.81 C 91.88 497.86 90.22 495.86 90.26 493.38 C 94.84 492.01 99.66 491.74 104.42 491.45 C 118.79 490.80 133.35 489.68 147.60 492.36 C 152.26 493.20 156.55 495.27 160.98 496.85 C 159.22 494.99 157.28 493.29 155.23 491.75 C 150.78 488.42 146.52 484.60 141.14 482.84 C 137.20 481.55 133.34 479.77 129.19 479.31 C 127.02 480.41 125.38 482.53 123.00 483.14 C 118.04 482.86 117.38 475.28 120.73 472.61 C 122.84 471.26 124.98 473.21 126.76 474.22 C 130.16 476.62 134.23 477.62 138.15 478.83 C 142.28 480.09 146.13 482.10 150.10 483.78 C 146.15 477.90 141.98 472.07 136.82 467.18 C 135.41 465.94 133.97 464.32 131.93 464.38 C 119.53 463.85 107.41 460.95 95.26 458.68 C 81.91 456.31 71.35 445.14 67.56 432.45 C 65.95 427.67 66.89 422.27 70.20 418.44 C 78.34 422.02 86.76 424.89 95.12 427.95 C 100.21 429.87 105.45 431.77 109.70 435.28 C 114.09 438.86 118.96 442.02 122.37 446.63 C 125.34 450.59 127.98 454.90 131.97 457.94 C 129.53 452.89 126.34 448.25 123.75 443.29 C 120.61 437.30 117.49 431.30 114.90 425.05 C 113.89 422.81 113.05 420.44 111.51 418.50 C 108.15 416.22 103.93 415.84 100.08 414.90 C 88.66 412.71 76.96 408.83 68.58 400.41 C 57.23 389.86 52.02 374.50 49.47 359.59 C 48.93 355.43 47.43 351.04 48.95 346.94 C 51.85 349.03 54.23 351.73 56.99 354.00 C 62.35 358.46 68.54 361.75 74.12 365.90 C 78.49 369.12 82.57 372.76 86.15 376.84 C 89.91 381.07 92.92 385.91 96.88 389.97 C 93.73 383.39 90.30 376.90 88.15 369.90 C 84.81 359.60 82.07 348.91 82.27 338.01 C 82.35 332.26 83.08 326.17 86.44 321.33 M 87.15 325.75 C 85.03 330.53 84.49 335.86 84.84 341.04 C 85.89 354.49 89.59 367.65 95.07 379.95 C 96.90 383.88 98.69 387.98 101.85 391.06 C 101.70 383.66 100.18 376.38 98.83 369.13 C 96.71 357.03 94.04 345.03 90.77 333.19 C 90.00 330.53 89.32 327.65 87.15 325.75 M 91.34 325.85 C 97.38 345.48 101.40 365.68 104.42 385.99 C 106.17 381.71 107.93 377.37 108.63 372.78 C 109.95 362.44 107.52 352.02 103.48 342.53 C 100.60 336.28 97.09 329.90 91.34 325.85 M 56.26 356.96 C 59.31 362.31 63.89 366.49 68.16 370.84 C 75.32 378.01 82.61 385.06 90.08 391.92 C 93.35 394.97 96.39 398.28 100.02 400.91 C 97.69 396.15 94.38 391.98 91.26 387.73 C 85.61 380.16 79.33 372.87 71.50 367.47 C 66.37 364.03 61.28 360.55 56.26 356.96 M 52.18 357.98 C 52.84 364.01 54.50 369.88 56.36 375.64 C 60.74 388.40 69.39 400.25 81.76 406.20 C 89.71 410.25 98.58 411.78 107.22 413.63 C 105.00 410.30 102.12 407.50 99.25 404.74 C 86.11 391.55 71.95 379.39 59.30 365.69 C 57.03 363.03 54.92 360.19 52.18 357.98 M 145.34 368.47 C 139.87 372.06 136.38 377.85 133.60 383.62 C 130.69 390.08 127.93 396.91 128.05 404.12 C 129.63 402.63 131.00 400.92 131.93 398.96 C 135.65 391.53 138.64 383.76 142.34 376.32 C 143.67 373.62 144.97 370.90 145.95 368.05 L 145.34 368.47 M 149.41 368.67 C 147.86 370.52 147.02 372.83 145.95 374.97 C 140.21 386.74 135.96 399.31 128.30 410.06 C 137.36 404.69 144.83 396.42 148.48 386.47 C 150.89 380.66 151.27 374.24 150.73 368.04 C 150.40 368.20 149.74 368.51 149.41 368.67 M 111.59 373.79 C 109.58 379.09 108.08 384.65 107.12 390.25 C 106.46 393.44 107.21 396.67 108.33 399.67 C 111.15 407.33 113.89 415.06 117.69 422.31 C 120.96 429.24 123.40 436.61 127.80 442.96 C 127.21 437.63 126.13 432.36 125.80 427.01 C 125.39 417.48 123.76 407.61 118.52 399.46 C 116.23 395.47 114.40 391.19 113.29 386.71 C 112.18 382.23 112.58 377.57 112.00 373.03 L 111.59 373.79 M 119.08 379.92 C 120.03 386.11 121.73 392.17 123.69 398.11 C 124.03 391.84 123.99 384.57 119.08 379.92 M 115.74 382.90 C 115.70 386.54 116.84 390.07 118.84 393.09 C 118.31 389.60 118.23 385.65 115.74 382.90 M 99.04 393.11 C 102.19 398.29 104.81 403.77 107.77 409.06 C 107.14 406.22 106.43 403.38 105.20 400.74 C 103.80 397.73 101.37 395.39 99.04 393.11 M 136.49 418.65 C 135.21 421.29 135.08 424.25 135.15 427.14 C 136.37 424.21 136.86 421.06 136.79 417.91 L 136.49 418.65 M 140.58 418.68 C 138.02 425.82 136.78 433.43 136.18 440.98 C 139.54 433.81 141.79 425.83 140.92 417.86 L 140.58 418.68 M 70.07 423.00 C 69.50 426.43 69.39 430.04 70.69 433.34 C 73.60 440.96 78.80 447.86 85.79 452.19 C 92.42 456.20 100.32 456.70 107.74 458.26 C 115.11 459.61 122.51 461.52 130.06 461.17 C 127.53 457.38 124.11 454.27 120.50 451.53 C 113.63 446.68 105.33 444.57 97.25 442.74 C 90.16 441.22 84.04 437.01 78.66 432.33 C 75.39 429.60 73.23 425.84 70.07 423.00 M 75.09 423.97 C 78.79 429.54 84.20 433.79 89.96 437.07 C 94.86 439.90 100.57 440.49 105.91 442.09 C 110.16 443.23 114.13 445.14 118.27 446.61 C 115.45 442.77 111.42 440.16 107.71 437.28 C 102.73 433.41 96.64 431.45 90.82 429.25 C 85.59 427.45 80.47 425.30 75.09 423.97 M 154.28 444.08 L 154.27 444.91 L 154.97 445.33 L 155.69 444.93 L 155.71 444.10 L 155.00 443.68 L 154.28 444.08 M 172.93 455.89 C 172.67 460.36 173.32 464.80 173.55 469.26 C 173.85 478.85 174.15 488.52 172.08 497.95 C 176.84 496.35 179.02 491.27 179.58 486.64 C 180.25 480.35 179.92 473.89 178.25 467.77 C 177.12 463.57 175.79 459.27 172.93 455.89 M 169.17 457.54 C 166.36 460.85 165.36 465.22 164.47 469.36 C 162.91 478.17 164.27 487.85 169.05 495.50 C 171.26 490.64 171.05 485.20 171.15 479.99 C 171.06 472.29 170.60 464.58 169.66 456.93 L 169.17 457.54 M 191.99 474.14 C 191.59 476.73 193.97 478.06 196.01 478.87 C 195.76 477.56 195.48 476.26 195.05 475.00 C 194.07 474.56 193.05 474.27 191.99 474.14 M 122.03 475.14 C 121.66 476.93 121.37 479.03 122.92 480.40 C 124.07 479.53 125.64 478.73 125.82 477.13 C 124.93 475.90 123.53 475.22 122.03 475.14 M 121.41 493.48 C 112.32 493.73 103.15 493.74 94.16 495.29 C 95.50 498.82 98.00 501.73 100.44 504.55 C 106.03 510.99 114.26 514.25 122.18 516.81 C 133.07 519.72 144.60 520.58 155.75 518.78 C 160.77 517.89 166.33 516.47 169.37 512.00 C 162.24 507.28 153.48 506.09 145.12 505.62 C 138.04 505.23 131.04 503.76 123.94 503.72 C 121.52 503.66 119.05 503.75 116.74 502.94 C 116.84 502.49 117.06 501.59 117.17 501.14 C 122.15 499.93 127.28 501.09 132.28 501.60 C 138.98 502.58 145.74 502.83 152.47 503.51 C 157.43 503.98 162.09 505.82 166.91 506.95 C 163.17 501.47 157.22 497.86 150.92 496.07 C 141.37 493.28 131.28 493.20 121.41 493.48 M 206.46 497.58 C 203.52 502.57 202.90 508.63 203.60 514.29 C 204.35 519.13 205.51 524.17 208.69 528.04 C 208.29 523.03 207.24 518.08 206.97 513.05 C 206.52 507.66 207.03 502.25 206.87 496.85 L 206.46 497.58 M 210.21 496.92 C 208.27 509.50 210.13 522.36 213.31 534.56 C 213.65 534.57 214.33 534.57 214.67 534.57 C 216.13 531.82 217.08 528.82 217.77 525.80 C 219.13 519.61 217.58 513.26 215.56 507.41 C 214.16 503.74 212.99 499.82 210.21 496.92 M 171.36 508.15 C 170.93 509.56 171.42 510.03 172.82 509.58 C 173.24 508.17 172.75 507.69 171.36 508.15 M 171.31 522.41 C 167.67 523.16 168.62 528.04 168.98 530.77 C 174.54 531.44 180.25 530.71 185.71 532.14 C 185.77 532.60 185.88 533.52 185.93 533.98 C 180.27 534.49 174.62 533.15 168.95 533.69 C 166.56 533.90 163.69 534.07 162.25 536.32 C 162.45 540.23 165.46 543.79 169.21 544.85 C 173.24 546.01 177.62 545.11 181.33 543.30 C 185.34 541.37 188.04 536.85 187.62 532.39 C 185.80 529.54 182.77 527.78 180.05 525.91 C 177.36 524.33 174.55 522.35 171.31 522.41 M 226.28 528.48 C 225.19 529.35 226.60 531.34 227.75 530.46 C 228.84 529.57 227.43 527.58 226.28 528.48 M 198.35 546.37 C 191.56 547.54 184.79 549.99 179.25 554.16 L 179.22 554.85 C 183.52 557.09 188.39 557.86 193.07 558.94 C 200.80 560.63 209.20 560.86 216.54 557.52 C 219.12 556.41 221.22 554.46 222.89 552.24 C 214.62 552.71 206.38 553.64 198.12 554.28 C 192.75 554.63 187.38 555.50 181.98 555.10 C 182.36 553.68 183.50 552.73 184.99 552.76 C 196.67 551.44 208.42 550.79 220.11 549.57 C 218.96 548.78 217.79 547.95 216.44 547.56 C 210.60 545.78 204.37 545.37 198.35 546.37 Z" />
<path fill="#fdde6c" opacity="1.00" d=" M 440.33 365.43 C 453.54 365.10 466.78 365.47 480.01 365.31 C 492.38 365.02 505.18 366.85 516.13 372.93 C 525.05 377.85 532.34 386.20 534.75 396.23 C 538.08 408.91 535.70 423.74 526.41 433.42 C 523.80 436.31 520.34 438.16 517.13 440.29 C 519.75 441.52 522.64 441.84 525.42 442.53 C 538.03 445.69 550.13 452.43 557.95 463.03 C 567.67 476.56 569.79 494.87 564.49 510.55 C 560.37 522.49 551.31 532.30 540.40 538.45 C 528.80 545.31 515.32 548.19 502.03 549.22 C 483.67 550.23 464.17 547.84 448.55 537.47 C 437.13 530.10 429.07 518.01 426.25 504.76 C 424.98 498.39 423.99 491.86 424.38 485.36 C 425.19 484.83 426.04 484.37 426.92 483.98 C 428.47 488.47 428.83 493.26 430.14 497.82 C 433.12 509.45 439.21 520.75 449.02 527.98 C 451.96 530.12 454.99 532.49 458.71 532.99 C 459.03 528.66 458.81 524.32 458.84 520.00 C 458.86 478.33 458.83 436.67 458.85 395.00 C 458.81 390.45 459.08 385.88 458.54 381.35 C 457.93 376.13 454.11 371.64 449.37 369.58 C 446.17 368.21 442.62 368.31 439.25 367.70 C 439.32 367.15 439.47 366.06 439.55 365.52 L 440.33 365.43 M 476.24 374.13 C 475.69 378.39 475.93 382.71 475.91 387.00 C 475.91 433.00 475.92 479.00 475.90 525.00 C 475.95 529.52 475.62 534.09 476.35 538.58 C 483.17 539.80 490.15 539.67 497.05 539.72 C 510.22 539.78 523.94 535.85 533.75 526.76 C 541.53 519.74 546.08 509.61 547.36 499.30 C 548.36 490.20 547.71 480.66 543.69 472.31 C 539.28 462.52 530.28 455.55 520.55 451.52 C 513.01 448.59 505.05 446.72 496.99 446.07 C 492.77 445.60 488.49 445.69 484.32 444.88 C 484.32 444.46 484.33 443.62 484.33 443.20 C 489.46 442.23 494.87 442.11 499.58 439.58 C 508.86 435.41 514.68 425.80 516.01 415.95 C 517.37 406.10 516.80 395.32 511.25 386.76 C 506.91 379.85 498.90 376.18 491.10 374.84 C 486.20 374.12 481.18 373.39 476.24 374.13 Z" />
</g>
</svg>
